<?xml version="1.0" encoding="UTF-8" standalone="no"?>
<!-- Created with Inkscape (http://www.inkscape.org/) -->

<svg
   xmlns:dc="http://purl.org/dc/elements/1.1/"
   xmlns:cc="http://creativecommons.org/ns#"
   xmlns:rdf="http://www.w3.org/1999/02/22-rdf-syntax-ns#"
   xmlns:svg="http://www.w3.org/2000/svg"
   xmlns="http://www.w3.org/2000/svg"
   xmlns:sodipodi="http://sodipodi.sourceforge.net/DTD/sodipodi-0.dtd"
   xmlns:inkscape="http://www.inkscape.org/namespaces/inkscape"
   width="99.664085"
   height="83.531738"
   id="svg4679"
   version="1.1"
   inkscape:version="0.48.3.1 r9886"
   sodipodi:docname="logo-can-i-has-asteroid.png"
   inkscape:export-filename="/home/vg/projects/can-i-haz-asteroid/doc/img/logo-can-i-has-asteroid.png"
   inkscape:export-xdpi="499.92975"
   inkscape:export-ydpi="499.92975">
  <defs
     id="defs4681" />
  <sodipodi:namedview
     id="base"
     pagecolor="#ffffff"
     bordercolor="#666666"
     borderopacity="1.0"
     inkscape:pageopacity="0.0"
     inkscape:pageshadow="2"
     inkscape:zoom="2.7099218"
     inkscape:cx="82.257119"
     inkscape:cy="36.700479"
     inkscape:document-units="px"
     inkscape:current-layer="layer1"
     showgrid="false"
     fit-margin-top="0"
     fit-margin-left="0"
     fit-margin-right="0"
     fit-margin-bottom="0"
     inkscape:window-width="1280"
     inkscape:window-height="779"
     inkscape:window-x="0"
     inkscape:window-y="0"
     inkscape:window-maximized="1" />
  <metadata
     id="metadata4684">
    <rdf:RDF>
      <cc:Work
         rdf:about="">
        <dc:format>image/svg+xml</dc:format>
        <dc:type
           rdf:resource="http://purl.org/dc/dcmitype/StillImage" />
        <dc:title></dc:title>
      </cc:Work>
    </rdf:RDF>
  </metadata>
  <g
     inkscape:label="Layer 1"
     inkscape:groupmode="layer"
     id="layer1"
     transform="translate(-31.095517,-23.089205)">
    <path
       style="fill:none;stroke:#000000;stroke-width:1px;stroke-linecap:butt;stroke-linejoin:miter;stroke-opacity:1"
       d="m 49.148581,63.89569 c -11.925887,-19.648919 -2.307514,-6.421759 5.800143,-5.800143 0.669532,0.05133 2.438487,-1.827945 2.747436,-2.136895 1.269111,-1.269111 4.694978,-0.726458 5.800143,-1.831624 0.31197,-0.311969 0.327731,-10.062703 1.526354,-9.463392 1.123139,0.56157 1.69338,6.577711 2.442165,7.326497 3.751303,3.751302 8.430719,15.990937 2.747437,21.674219 -1.465452,1.465452 -4.237982,0.983178 -6.410685,1.526353 -3.150604,0.787651 -6.261135,0.45482 -7.937038,-1.221082"
       id="path4687"
       inkscape:connector-curvature="0"
       sodipodi:nodetypes="csssssssc" />
    <path
       style="fill:none;stroke:#000000;stroke-width:1px;stroke-linecap:butt;stroke-linejoin:miter;stroke-opacity:1"
       d="m 66.24374,75.801247 c 2.95095,0 5.9019,0 8.85285,0 2.64766,0 1.331816,0.610541 3.968518,0.610541 1.036407,0 2.437451,0.305271 3.663248,0.305271 2.413291,0 9.052479,-0.810171 5.494873,2.747436 -0.586661,0.586661 -14.309293,0.610541 -15.568805,0.610541 -0.918334,0 -5.199303,-0.295569 -5.800143,0.305271 -1.130914,1.130914 -2.825549,3.208933 -3.663248,4.884331 -0.895538,1.791076 -1.075146,14.029055 0,16.179342 0.50193,1.00387 2.747436,0.14015 2.747436,1.22109 0,1.57382 -4.866131,3.0709 -6.105414,1.83162 -0.613148,-0.61315 0,-4.805972 0,-5.800142 0,-3.343779 -0.200798,-6.402537 -0.915812,-8.547579"
       id="path4691"
       inkscape:connector-curvature="0"
       sodipodi:nodetypes="csssssssssssc" />
    <path
       style="fill:#000000;stroke:#000000;stroke-width:1px;stroke-linecap:butt;stroke-linejoin:miter;stroke-opacity:1"
       d="m 57.037556,68.108819 c 5.837795,4.303741 4.422885,-7.784035 0,0 z"
       id="path4693"
       inkscape:connector-curvature="0" />
    <path
       style="fill:#000000;stroke:#000000;stroke-width:1px;stroke-linecap:butt;stroke-linejoin:miter;stroke-opacity:1"
       d="m 71.600629,60.92729 c -3.450168,-5.287033 -6.426589,7.362629 0,0 z"
       id="path4695"
       inkscape:connector-curvature="0" />
    <path
       style="fill:none;stroke:#000000;stroke-width:1px;stroke-linecap:butt;stroke-linejoin:miter;stroke-opacity:1"
       d="m 63.496303,70.459009 c -0.222612,1.243324 2.601976,1.290225 3.28166,0.610541 0.254602,-0.254602 0.824697,-1.846422 0.457906,-2.213213 -0.03335,-0.03335 -0.542935,-0.457906 -0.534223,-0.457906 0.104888,0 0.0022,0.231104 0.07632,0.305271 0.134999,0.134999 0.447091,0.370773 0.610542,0.534224 0.127759,0.127759 1.542421,0.297236 1.831624,0.152635 0.472433,-0.236216 1.383187,-1.701272 0.534224,-1.984259"
       id="path4699"
       inkscape:connector-curvature="0" />
    <path
       style="fill:none;stroke:#000000;stroke-width:1px;stroke-linecap:butt;stroke-linejoin:miter;stroke-opacity:1"
       d="m 48.385405,73.511716 c -6.103377,2.322987 -13.644598,5.124539 -15.41617,12.210828 -0.617246,2.468985 -0.569969,4.986739 -1.068448,7.479132 -0.687445,3.437229 0.789984,7.551354 -0.30527,10.837114"
       id="path4713"
       inkscape:connector-curvature="0" />
    <path
       style="fill:none;stroke:#000000;stroke-width:1px;stroke-linecap:butt;stroke-linejoin:miter;stroke-opacity:1"
       d="m 47.077873,101.83576 c 0.492216,-2.795452 3.657156,-2.059709 5.933806,0.49882 0.326149,0.36653 1.379075,2.4793 0.593101,2.93958 -1.258753,0.73713 -3.387276,0.64115 -4.785858,0.79125 -0.916749,0.0984 -1.817419,0.0469 -2.751663,-0.008 -1.219013,-0.0711 -7.314078,-0.42639 -8.533091,-0.49746 -1.782437,-0.10391 -4.186888,0.14691 -5.781429,-0.48994"
       id="path4715"
       inkscape:connector-curvature="0"
       sodipodi:nodetypes="csssssc" />
    <g
       id="g4737"
       transform="matrix(0.95891483,-0.28369412,0.28369412,0.95891483,-20.425345,6.667479)">
      <path
         inkscape:connector-curvature="0"
         id="path4697"
         d="m 126.38207,55.04284 c -9.55081,-1.124788 -12.28325,5.26202 -18.01097,10.989745 -2.77244,2.772437 -5.84636,5.834806 -9.463391,8.547579 -0.91932,0.689489 -5.80015,1.720336 -5.80015,2.747436 0,1.134303 -4.145521,4.450797 -4.884331,5.189602 -1.45612,1.456119 -2.13689,6.238366 -2.13689,8.242309 0,1.592251 -0.6909,5.028893 0,6.410684 4.772061,9.544125 18.409312,7.773235 25.948012,2.747436 3.75971,-2.506475 1.71582,-7.515971 4.27378,-10.073932 4.59556,-4.595561 11.62257,-5.517148 16.48462,-10.379204 2.43884,-2.438838 4.52208,-12.935339 2.74744,-16.484617 -1.59853,-3.197063 -5.88763,-7.119415 -9.15812,-7.937038 z"
         style="fill:#b3b3b3;stroke:#000000;stroke-width:1px;stroke-linecap:butt;stroke-linejoin:miter;stroke-opacity:1" />
      <path
         transform="translate(31.095517,34.875539)"
         inkscape:connector-curvature="0"
         id="path4719"
         d="m 77.538755,45.492128 c -0.543777,-3.653758 1.010072,-4.007436 3.815884,-2.136895"
         style="fill:none;stroke:#000000;stroke-width:1px;stroke-linecap:butt;stroke-linejoin:miter;stroke-opacity:1" />
      <path
         transform="translate(31.095517,34.875539)"
         inkscape:connector-curvature="0"
         id="path4721"
         d="m 89.291677,34.044477 c 1.509875,0.287044 3.622376,3.70412 2.442165,4.884331 -0.758662,0.758662 -3.228115,1.438649 -4.273789,0.915812 -2.844562,-1.422281 -1.689868,-5.800143 1.831624,-5.800143 z"
         style="fill:none;stroke:#000000;stroke-width:1px;stroke-linecap:butt;stroke-linejoin:miter;stroke-opacity:1" />
      <path
         transform="translate(31.095517,34.875539)"
         inkscape:connector-curvature="0"
         id="path4723"
         d="m 85.170522,30.99177 c -3.0413,0.840322 -3.510612,2.533163 -3.510612,5.494872"
         style="fill:none;stroke:#000000;stroke-width:1px;stroke-linecap:butt;stroke-linejoin:miter;stroke-opacity:1" />
      <path
         transform="translate(31.095517,34.875539)"
         inkscape:connector-curvature="0"
         id="path4725"
         d="m 64.412116,52.97126 c -0.624334,4.457964 3.84597,2.983911 5.952778,3.510613"
         style="fill:none;stroke:#000000;stroke-width:1px;stroke-linecap:butt;stroke-linejoin:miter;stroke-opacity:1" />
      <path
         transform="translate(31.095517,34.875539)"
         inkscape:connector-curvature="0"
         id="path4727"
         d="m 75.249225,50.987 c 1.949845,2.574851 2.800243,8.85285 -2.136895,8.85285"
         style="fill:none;stroke:#000000;stroke-width:1px;stroke-linecap:butt;stroke-linejoin:miter;stroke-opacity:1" />
      <path
         transform="translate(31.095517,34.875539)"
         inkscape:connector-curvature="0"
         id="path4729"
         d="m 59.069878,62.12938 c -0.07821,-2.182805 -1.789244,-5.183227 0.457906,-6.86859 0.695559,-0.521669 1.564107,-0.113261 1.831625,-0.915812"
         style="fill:none;stroke:#000000;stroke-width:1px;stroke-linecap:butt;stroke-linejoin:miter;stroke-opacity:1" />
      <path
         transform="translate(31.095517,34.875539)"
         inkscape:connector-curvature="0"
         id="path4731"
         d="m 94.786549,23.512638 c 6.288531,-0.381019 5.587301,12.423668 2.594801,15.41617 -0.678745,0.678745 -1.205397,0.900126 -1.831624,1.526353"
         style="fill:none;stroke:#000000;stroke-width:1px;stroke-linecap:butt;stroke-linejoin:miter;stroke-opacity:1" />
      <path
         transform="translate(31.095517,34.875539)"
         inkscape:connector-curvature="0"
         id="path4733"
         d="m 65.327928,46.40794 c 0.368491,-2.744774 4.901268,-5.342237 7.631767,-5.342237"
         style="fill:none;stroke:#000000;stroke-width:1px;stroke-linecap:butt;stroke-linejoin:miter;stroke-opacity:1" />
      <path
         transform="translate(31.095517,34.875539)"
         inkscape:connector-curvature="0"
         id="path4735"
         d="m 81.96518,53.429166 c 0.0047,-2.76245 2.777195,-4.996008 5.189602,-5.800143"
         style="fill:none;stroke:#000000;stroke-width:1px;stroke-linecap:butt;stroke-linejoin:miter;stroke-opacity:1" />
    </g>
  </g>
</svg>
